<mxfile host="Electron" modified="2024-12-18T16:14:08.880Z" agent="Mozilla/5.0 (X11; Linux x86_64) AppleWebKit/537.36 (KHTML, like Gecko) draw.io/24.6.1 Chrome/124.0.6367.207 Electron/30.0.6 Safari/537.36" etag="sr1rCQGJvJiCK3ydLh5l" version="24.6.1" type="device">
  <diagram name="Page-1" id="JFPJkxZZSjxiJD6og031">
    <mxGraphModel dx="89" dy="630" grid="1" gridSize="10" guides="1" tooltips="1" connect="1" arrows="1" fold="1" page="1" pageScale="1" pageWidth="850" pageHeight="1100" math="0" shadow="0">
      <root>
        <mxCell id="0" />
        <mxCell id="1" parent="0" />
        <mxCell id="_TZs-UMcsAIsMrrE9qfW-124" value="Include Module :&lt;div&gt;Data Analyzing&lt;/div&gt;" style="ellipse;whiteSpace=wrap;html=1;fontSize=9;" parent="1" vertex="1">
          <mxGeometry x="920" y="800" width="120" height="60" as="geometry" />
        </mxCell>
        <mxCell id="_TZs-UMcsAIsMrrE9qfW-125" value="Apply Machine Learning&lt;div&gt;Methods for Data&lt;/div&gt;&lt;div&gt;Pattern&amp;nbsp;&lt;span style=&quot;background-color: initial;&quot;&gt;Recognition&lt;/span&gt;&lt;/div&gt;" style="ellipse;whiteSpace=wrap;html=1;fontSize=9;" parent="1" vertex="1">
          <mxGeometry x="1440" y="830" width="120" height="60" as="geometry" />
        </mxCell>
        <mxCell id="_TZs-UMcsAIsMrrE9qfW-126" value="&lt;p data-pm-slice=&quot;0 0 []&quot;&gt;Analyze Light Curves for Exoplanet Discovery&lt;/p&gt;" style="ellipse;whiteSpace=wrap;html=1;fontSize=9;" parent="1" vertex="1">
          <mxGeometry x="1090" y="650" width="120" height="60" as="geometry" />
        </mxCell>
        <mxCell id="_TZs-UMcsAIsMrrE9qfW-127" value="Analyse Datasets of&lt;div&gt;Astronomical or&lt;/div&gt;&lt;div&gt;Physical Information&lt;/div&gt;" style="ellipse;whiteSpace=wrap;html=1;fontSize=9;" parent="1" vertex="1">
          <mxGeometry x="1090" y="800" width="120" height="60" as="geometry" />
        </mxCell>
        <mxCell id="_TZs-UMcsAIsMrrE9qfW-128" value="Statistical&lt;div&gt;Analysis&lt;/div&gt;" style="ellipse;whiteSpace=wrap;html=1;fontSize=9;" parent="1" vertex="1">
          <mxGeometry x="1220" y="740" width="90" height="40" as="geometry" />
        </mxCell>
        <mxCell id="_TZs-UMcsAIsMrrE9qfW-129" value="" style="endArrow=none;endSize=16;endFill=0;html=1;rounded=0;exitX=1;exitY=0;exitDx=0;exitDy=0;entryX=0;entryY=1;entryDx=0;entryDy=0;startSize=16;startArrow=block;startFill=0;" parent="1" source="_TZs-UMcsAIsMrrE9qfW-127" target="_TZs-UMcsAIsMrrE9qfW-128" edge="1">
          <mxGeometry width="160" relative="1" as="geometry">
            <mxPoint x="1270" y="847.5" as="sourcePoint" />
            <mxPoint x="1310" y="812.5" as="targetPoint" />
          </mxGeometry>
        </mxCell>
        <mxCell id="_TZs-UMcsAIsMrrE9qfW-130" value="&lt;div&gt;Detect&lt;/div&gt;Correlation" style="ellipse;whiteSpace=wrap;html=1;fontSize=9;" parent="1" vertex="1">
          <mxGeometry x="1280" y="780" width="90" height="40" as="geometry" />
        </mxCell>
        <mxCell id="_TZs-UMcsAIsMrrE9qfW-131" value="Detect&lt;div&gt;Anomalies&lt;/div&gt;" style="ellipse;whiteSpace=wrap;html=1;fontSize=9;" parent="1" vertex="1">
          <mxGeometry x="1280" y="840" width="90" height="40" as="geometry" />
        </mxCell>
        <mxCell id="_TZs-UMcsAIsMrrE9qfW-132" value="Finding&lt;div&gt;Trends&lt;/div&gt;" style="ellipse;whiteSpace=wrap;html=1;fontSize=9;" parent="1" vertex="1">
          <mxGeometry x="1220" y="880" width="90" height="40" as="geometry" />
        </mxCell>
        <mxCell id="_TZs-UMcsAIsMrrE9qfW-133" value="" style="endArrow=none;endSize=16;endFill=0;html=1;rounded=0;exitX=1;exitY=0.5;exitDx=0;exitDy=0;entryX=0;entryY=0.5;entryDx=0;entryDy=0;startSize=16;startArrow=block;startFill=0;" parent="1" source="_TZs-UMcsAIsMrrE9qfW-127" target="_TZs-UMcsAIsMrrE9qfW-130" edge="1">
          <mxGeometry width="160" relative="1" as="geometry">
            <mxPoint x="1203" y="819" as="sourcePoint" />
            <mxPoint x="1243" y="784" as="targetPoint" />
          </mxGeometry>
        </mxCell>
        <mxCell id="_TZs-UMcsAIsMrrE9qfW-134" value="" style="endArrow=none;endSize=16;endFill=0;html=1;rounded=0;entryX=0;entryY=0.5;entryDx=0;entryDy=0;startSize=16;startArrow=block;startFill=0;" parent="1" target="_TZs-UMcsAIsMrrE9qfW-131" edge="1">
          <mxGeometry width="160" relative="1" as="geometry">
            <mxPoint x="1210" y="830" as="sourcePoint" />
            <mxPoint x="1290" y="810" as="targetPoint" />
          </mxGeometry>
        </mxCell>
        <mxCell id="_TZs-UMcsAIsMrrE9qfW-135" value="" style="endArrow=none;endSize=16;endFill=0;html=1;rounded=0;exitX=1;exitY=1;exitDx=0;exitDy=0;entryX=0;entryY=0;entryDx=0;entryDy=0;startSize=16;startArrow=block;startFill=0;" parent="1" source="_TZs-UMcsAIsMrrE9qfW-127" target="_TZs-UMcsAIsMrrE9qfW-132" edge="1">
          <mxGeometry width="160" relative="1" as="geometry">
            <mxPoint x="1230" y="850" as="sourcePoint" />
            <mxPoint x="1300" y="820" as="targetPoint" />
          </mxGeometry>
        </mxCell>
        <mxCell id="_TZs-UMcsAIsMrrE9qfW-136" value="&amp;lt;&amp;lt;extend&amp;gt;&amp;gt;" style="html=1;verticalAlign=bottom;labelBackgroundColor=none;endArrow=none;endFill=0;dashed=1;rounded=0;exitX=1;exitY=0.5;exitDx=0;exitDy=0;entryX=0;entryY=0;entryDx=0;entryDy=0;startArrow=open;startFill=0;" parent="1" target="_TZs-UMcsAIsMrrE9qfW-125" edge="1">
          <mxGeometry x="-0.0837" y="-25" width="160" relative="1" as="geometry">
            <mxPoint x="1370" y="799.44" as="sourcePoint" />
            <mxPoint x="1457.5735931288073" y="838.7867965644032" as="targetPoint" />
            <mxPoint as="offset" />
          </mxGeometry>
        </mxCell>
        <mxCell id="_TZs-UMcsAIsMrrE9qfW-137" value="&amp;lt;&amp;lt;extend&amp;gt;&amp;gt;" style="html=1;verticalAlign=bottom;labelBackgroundColor=none;endArrow=none;endFill=0;dashed=1;rounded=0;exitX=1;exitY=0.5;exitDx=0;exitDy=0;entryX=0;entryY=0.5;entryDx=0;entryDy=0;startArrow=open;startFill=0;" parent="1" source="_TZs-UMcsAIsMrrE9qfW-131" target="_TZs-UMcsAIsMrrE9qfW-125" edge="1">
          <mxGeometry x="0.0667" y="-20" width="160" relative="1" as="geometry">
            <mxPoint x="1380" y="809.44" as="sourcePoint" />
            <mxPoint x="1440" y="860" as="targetPoint" />
            <mxPoint as="offset" />
          </mxGeometry>
        </mxCell>
        <mxCell id="_TZs-UMcsAIsMrrE9qfW-138" value="&amp;lt;&amp;lt;extend&amp;gt;&amp;gt;" style="html=1;verticalAlign=bottom;labelBackgroundColor=none;endArrow=none;endFill=0;dashed=1;rounded=0;exitX=1;exitY=0.5;exitDx=0;exitDy=0;entryX=0;entryY=1;entryDx=0;entryDy=0;startArrow=open;startFill=0;" parent="1" source="_TZs-UMcsAIsMrrE9qfW-132" target="_TZs-UMcsAIsMrrE9qfW-125" edge="1">
          <mxGeometry x="-0.0834" y="-19" width="160" relative="1" as="geometry">
            <mxPoint x="1400" y="829.44" as="sourcePoint" />
            <mxPoint x="1457.5735931288073" y="881.2132034355964" as="targetPoint" />
            <mxPoint as="offset" />
          </mxGeometry>
        </mxCell>
        <mxCell id="_TZs-UMcsAIsMrrE9qfW-139" value="Process Astronomical&lt;div&gt;Images for&lt;/div&gt;&lt;div&gt;Object Detection&lt;/div&gt;" style="ellipse;whiteSpace=wrap;html=1;fontSize=9;" parent="1" vertex="1">
          <mxGeometry x="1090" y="950" width="120" height="60" as="geometry" />
        </mxCell>
        <mxCell id="_TZs-UMcsAIsMrrE9qfW-140" value="" style="html=1;verticalAlign=bottom;labelBackgroundColor=none;endArrow=none;endFill=0;dashed=1;rounded=0;exitX=0.5;exitY=0;exitDx=0;exitDy=0;entryX=0.5;entryY=1;entryDx=0;entryDy=0;startArrow=open;startFill=0;" parent="1" source="_TZs-UMcsAIsMrrE9qfW-139" target="_TZs-UMcsAIsMrrE9qfW-127" edge="1">
          <mxGeometry x="0.1429" width="160" relative="1" as="geometry">
            <mxPoint x="1150" y="990" as="sourcePoint" />
            <mxPoint x="1150" y="870" as="targetPoint" />
            <mxPoint as="offset" />
          </mxGeometry>
        </mxCell>
        <mxCell id="_TZs-UMcsAIsMrrE9qfW-141" value="&amp;lt;&amp;lt;include&amp;gt;&amp;gt;" style="edgeLabel;html=1;align=center;verticalAlign=middle;resizable=0;points=[];" parent="_TZs-UMcsAIsMrrE9qfW-140" vertex="1" connectable="0">
          <mxGeometry x="-0.1918" y="-2" relative="1" as="geometry">
            <mxPoint x="-2" y="-8" as="offset" />
          </mxGeometry>
        </mxCell>
        <mxCell id="_TZs-UMcsAIsMrrE9qfW-142" value="Applying Filters&lt;div&gt;on Images&lt;/div&gt;" style="ellipse;whiteSpace=wrap;html=1;fontSize=9;" parent="1" vertex="1">
          <mxGeometry x="1260" y="930" width="90" height="40" as="geometry" />
        </mxCell>
        <mxCell id="_TZs-UMcsAIsMrrE9qfW-143" value="Object Detection" style="ellipse;whiteSpace=wrap;html=1;fontSize=9;" parent="1" vertex="1">
          <mxGeometry x="1260" y="990" width="90" height="40" as="geometry" />
        </mxCell>
        <mxCell id="_TZs-UMcsAIsMrrE9qfW-144" value="" style="endArrow=none;endSize=16;endFill=0;html=1;rounded=0;exitX=1;exitY=0.5;exitDx=0;exitDy=0;entryX=0;entryY=0.5;entryDx=0;entryDy=0;startSize=16;startArrow=block;startFill=0;" parent="1" source="_TZs-UMcsAIsMrrE9qfW-139" target="_TZs-UMcsAIsMrrE9qfW-142" edge="1">
          <mxGeometry width="160" relative="1" as="geometry">
            <mxPoint x="1202" y="819" as="sourcePoint" />
            <mxPoint x="1243" y="784" as="targetPoint" />
          </mxGeometry>
        </mxCell>
        <mxCell id="_TZs-UMcsAIsMrrE9qfW-145" value="" style="endArrow=none;endSize=16;endFill=0;html=1;rounded=0;exitX=1;exitY=0.5;exitDx=0;exitDy=0;entryX=0;entryY=0.5;entryDx=0;entryDy=0;startSize=16;startArrow=block;startFill=0;" parent="1" source="_TZs-UMcsAIsMrrE9qfW-139" target="_TZs-UMcsAIsMrrE9qfW-143" edge="1">
          <mxGeometry width="160" relative="1" as="geometry">
            <mxPoint x="1202" y="969" as="sourcePoint" />
            <mxPoint x="1250" y="960" as="targetPoint" />
          </mxGeometry>
        </mxCell>
        <mxCell id="_TZs-UMcsAIsMrrE9qfW-146" value="" style="endArrow=open;endFill=1;endSize=12;html=1;rounded=0;exitX=1;exitY=0.5;exitDx=0;exitDy=0;entryX=0;entryY=0.5;entryDx=0;entryDy=0;" parent="1" source="_TZs-UMcsAIsMrrE9qfW-124" target="_TZs-UMcsAIsMrrE9qfW-127" edge="1">
          <mxGeometry width="160" relative="1" as="geometry">
            <mxPoint x="850" y="619" as="sourcePoint" />
            <mxPoint x="917" y="570" as="targetPoint" />
          </mxGeometry>
        </mxCell>
        <mxCell id="_TZs-UMcsAIsMrrE9qfW-147" value="" style="html=1;verticalAlign=bottom;labelBackgroundColor=none;endArrow=none;endFill=0;dashed=1;rounded=0;entryX=0.5;entryY=0;entryDx=0;entryDy=0;exitX=0.5;exitY=1;exitDx=0;exitDy=0;startArrow=open;startFill=0;" parent="1" source="_TZs-UMcsAIsMrrE9qfW-126" target="_TZs-UMcsAIsMrrE9qfW-127" edge="1">
          <mxGeometry x="0.1429" width="160" relative="1" as="geometry">
            <mxPoint x="1110" y="750" as="sourcePoint" />
            <mxPoint x="1149.73" y="710" as="targetPoint" />
            <mxPoint as="offset" />
          </mxGeometry>
        </mxCell>
        <mxCell id="_TZs-UMcsAIsMrrE9qfW-148" value="&amp;lt;&amp;lt;include&amp;gt;&amp;gt;" style="edgeLabel;html=1;align=center;verticalAlign=middle;resizable=0;points=[];" parent="_TZs-UMcsAIsMrrE9qfW-147" vertex="1" connectable="0">
          <mxGeometry x="-0.1918" y="-2" relative="1" as="geometry">
            <mxPoint x="2" y="4" as="offset" />
          </mxGeometry>
        </mxCell>
        <mxCell id="_TZs-UMcsAIsMrrE9qfW-149" value="" style="endArrow=open;endFill=1;endSize=12;html=1;rounded=0;exitX=1;exitY=0.5;exitDx=0;exitDy=0;entryX=0;entryY=0.5;entryDx=0;entryDy=0;" parent="1" source="_TZs-UMcsAIsMrrE9qfW-124" target="_TZs-UMcsAIsMrrE9qfW-126" edge="1">
          <mxGeometry width="160" relative="1" as="geometry">
            <mxPoint x="1050" y="840" as="sourcePoint" />
            <mxPoint x="1100" y="840" as="targetPoint" />
          </mxGeometry>
        </mxCell>
        <mxCell id="_TZs-UMcsAIsMrrE9qfW-150" value="" style="endArrow=open;endFill=1;endSize=12;html=1;rounded=0;exitX=1;exitY=0.5;exitDx=0;exitDy=0;entryX=0;entryY=0.5;entryDx=0;entryDy=0;" parent="1" source="_TZs-UMcsAIsMrrE9qfW-124" target="_TZs-UMcsAIsMrrE9qfW-139" edge="1">
          <mxGeometry width="160" relative="1" as="geometry">
            <mxPoint x="1047" y="836" as="sourcePoint" />
            <mxPoint x="1100" y="690" as="targetPoint" />
          </mxGeometry>
        </mxCell>
        <mxCell id="_TZs-UMcsAIsMrrE9qfW-153" value="&amp;lt;&amp;lt;extend&amp;gt;&amp;gt;" style="html=1;verticalAlign=bottom;labelBackgroundColor=none;endArrow=none;endFill=0;dashed=1;rounded=0;exitX=1;exitY=0.5;exitDx=0;exitDy=0;entryX=0.5;entryY=1;entryDx=0;entryDy=0;startArrow=open;startFill=0;" parent="1" source="_TZs-UMcsAIsMrrE9qfW-143" target="_TZs-UMcsAIsMrrE9qfW-125" edge="1">
          <mxGeometry x="-0.2033" y="16" width="160" relative="1" as="geometry">
            <mxPoint x="1320" y="910" as="sourcePoint" />
            <mxPoint x="1468" y="891" as="targetPoint" />
            <mxPoint as="offset" />
          </mxGeometry>
        </mxCell>
      </root>
    </mxGraphModel>
  </diagram>
</mxfile>
